<svg width="22" height="21" viewBox="0 0 22 21" fill="none" xmlns="http://www.w3.org/2000/svg">
<path fill-rule="evenodd" clip-rule="evenodd" d="M7.08093 1.12C7.39453 0.4592 8.07101 0 8.85277 0H13.3328C14.1145 0 14.7899 0.4592 15.1046 1.12C15.8696 1.12672 16.4665 1.16144 16.9997 1.36976C17.6361 1.6187 18.1895 2.04177 18.5968 2.59056C19.0078 3.14384 19.2016 3.8528 19.4659 4.82832L20.2969 7.87696L20.6105 8.81888L20.6374 8.85248C21.6465 10.145 21.166 12.0669 20.2051 15.9096C19.5936 18.3546 19.2889 19.5765 18.3773 20.2888C17.4656 21 16.2056 21 13.6856 21H8.49997C5.97997 21 4.71997 21 3.80829 20.2888C2.89661 19.5765 2.59085 18.3546 1.98045 15.9096C1.01949 12.0669 0.539011 10.145 1.54813 8.85248L1.57501 8.81888L1.88861 7.87696L2.71965 4.82832C2.98509 3.8528 3.17885 3.14272 3.58877 2.58944C3.99615 2.04107 4.54961 1.6184 5.18589 1.36976C5.71901 1.16144 6.31485 1.1256 7.08093 1.12ZM7.08317 2.80224C6.34173 2.81008 6.04381 2.83808 5.79741 2.9344C5.45465 3.06844 5.15656 3.29628 4.93725 3.59184C4.74013 3.85728 4.62365 4.228 4.29885 5.42304L3.66045 7.76272C4.80285 7.56 6.36413 7.56 8.49885 7.56H13.6856C15.8214 7.56 17.3816 7.56 18.524 7.7616L17.8867 5.42192C17.5619 4.22688 17.4454 3.85616 17.2483 3.59072C17.029 3.29516 16.7309 3.06732 16.3881 2.93328C16.1417 2.83696 15.8438 2.80896 15.1024 2.80112C14.9433 3.13583 14.6927 3.4186 14.3795 3.61664C14.0663 3.81467 13.7033 3.91986 13.3328 3.92H8.85277C8.48233 3.91996 8.11948 3.81494 7.80628 3.61711C7.49308 3.41928 7.24236 3.13674 7.08317 2.80224Z" fill="black"/>
</svg>
