<svg width="23" height="20" viewBox="0 0 23 20" fill="none" xmlns="http://www.w3.org/2000/svg">
<path fill-rule="evenodd" clip-rule="evenodd" d="M2.62308 2.42997C3.77782 1.27562 5.30686 0.571611 6.93471 0.444783C8.56255 0.317954 10.1822 0.776644 11.5018 1.73821C12.8958 0.7296 14.6184 0.282458 16.327 0.485665C18.0356 0.688872 19.6053 1.52755 20.7239 2.83499C21.8425 4.14244 22.4282 5.82292 22.3646 7.54242C22.3009 9.26191 21.5926 10.8945 20.3805 12.1157L13.9229 18.5733C13.2807 19.2153 12.4098 19.5759 11.5018 19.5759C10.5937 19.5759 9.72282 19.2153 9.08062 18.5733L2.62308 12.1169C1.33872 10.8324 0.617187 9.0904 0.617188 7.27399C0.617187 5.45758 1.33872 3.71441 2.62308 2.42997Z" fill="black"/>
</svg>
