<svg width="16" height="17" viewBox="0 0 16 17" fill="none" xmlns="http://www.w3.org/2000/svg">
<path fill-rule="evenodd" clip-rule="evenodd" d="M4.95534 1.678C5.19337 1.17643 5.70684 0.827881 6.30022 0.827881H9.70068C10.2941 0.827881 10.8067 1.17643 11.0456 1.678C11.6262 1.6831 12.0793 1.70945 12.484 1.86757C12.967 2.05653 13.3871 2.37765 13.6962 2.7942C14.0082 3.21416 14.1553 3.75228 14.3559 4.49273L14.9867 6.80675L15.2247 7.5217L15.2451 7.5472C16.0111 8.52823 15.6464 9.98703 14.917 12.9038C14.4528 14.7596 14.2216 15.6871 13.5296 16.2277C12.8376 16.7676 11.8812 16.7676 9.96847 16.7676H6.03243C4.11967 16.7676 3.16329 16.7676 2.4713 16.2277C1.7793 15.6871 1.54722 14.7596 1.08391 12.9038C0.354509 9.98703 -0.0101914 8.52823 0.755763 7.5472L0.776166 7.5217L1.0142 6.80675L1.64498 4.49273C1.84646 3.75228 1.99353 3.21331 2.30467 2.79335C2.61389 2.37712 3.03399 2.0563 3.51694 1.86757C3.9216 1.70945 4.37386 1.68225 4.95534 1.678ZM4.95704 2.95487C4.39426 2.96082 4.16813 2.98208 3.9811 3.05519C3.72094 3.15693 3.49468 3.32987 3.32821 3.5542C3.17859 3.75568 3.09018 4.03707 2.84365 4.94414L2.35908 6.72004C3.2262 6.56616 4.41126 6.56616 6.03158 6.56616H9.96847C11.5896 6.56616 12.7739 6.56617 13.641 6.71919L13.1573 4.94329C12.9107 4.03622 12.8223 3.75483 12.6727 3.55335C12.5062 3.32902 12.28 3.15608 12.0198 3.05434C11.8328 2.98123 11.6066 2.95997 11.0439 2.95402C10.9232 3.20808 10.7329 3.42271 10.4952 3.57302C10.2574 3.72334 9.98196 3.80318 9.70068 3.80329H6.30022C6.01904 3.80326 5.74363 3.72354 5.5059 3.57338C5.26817 3.42322 5.07786 3.20877 4.95704 2.95487Z" fill="white"/>
</svg>
