<svg width="14" height="13" viewBox="0 0 14 13" fill="none" xmlns="http://www.w3.org/2000/svg">
<path d="M12.062 0.747691C11.8501 0.629782 11.617 0.554799 11.3761 0.52703C11.1352 0.499261 10.8912 0.519252 10.6581 0.585858C10.4249 0.652465 10.2071 0.764381 10.0173 0.915207C9.82737 1.06603 9.66909 1.25281 9.55145 1.46485L6.12438 7.63228L4.16303 5.67092C3.99274 5.49461 3.78905 5.35398 3.56383 5.25723C3.33862 5.16049 3.09639 5.10956 2.85128 5.10743C2.60617 5.1053 2.36309 5.15201 2.13623 5.24483C1.90936 5.33765 1.70326 5.47472 1.52993 5.64804C1.35661 5.82136 1.21954 6.02747 1.12672 6.25434C1.0339 6.4812 0.987198 6.72428 0.989328 6.96939C0.991457 7.21449 1.04238 7.45672 1.13913 7.68194C1.23587 7.90716 1.3765 8.11085 1.55281 8.28114L5.24477 11.9731C5.59367 12.3229 6.06439 12.5149 6.54988 12.5149L6.80555 12.4964C7.08849 12.4569 7.35839 12.3521 7.59399 12.1905C7.82959 12.0289 8.02446 11.8148 8.16327 11.5651L12.7782 3.25822C12.896 3.04635 12.971 2.81335 12.9988 2.57252C13.0265 2.33168 13.0066 2.08774 12.9401 1.85461C12.8736 1.62149 12.7618 1.40374 12.6111 1.21382C12.4605 1.02389 12.2739 0.8655 12.062 0.747691Z" fill="white"/>
</svg>
