<svg width="24" height="25" viewBox="0 0 24 25" fill="none" xmlns="http://www.w3.org/2000/svg">
<path d="M6 14.5149H18V12.5149H6V14.5149ZM6 11.5149H18V9.51489H6V11.5149ZM6 8.51489H18V6.51489H6V8.51489ZM4 18.5149C3.45 18.5149 2.979 18.3189 2.587 17.9269C2.195 17.5349 1.99934 17.0642 2 16.5149V4.51489C2 3.96489 2.196 3.49389 2.588 3.10189C2.98 2.70989 3.45067 2.51423 4 2.51489H20C20.55 2.51489 21.021 2.71089 21.413 3.10289C21.805 3.49489 22.0007 3.96556 22 4.51489V22.5149L18 18.5149H4Z" fill="black"/>
</svg>
