<svg xmlns="http://www.w3.org/2000/svg" width="15" height="14" viewBox="0 0 15 14" fill="none">
<path fill-rule="evenodd" clip-rule="evenodd" d="M1.51869 1.69301C2.29739 0.914574 3.3285 0.439825 4.42623 0.354298C5.52397 0.268771 6.61617 0.578089 7.50604 1.22652C8.44613 0.546364 9.60772 0.244835 10.7599 0.381867C11.9121 0.5189 12.9706 1.08446 13.725 1.96614C14.4793 2.84781 14.8743 3.98105 14.8314 5.14059C14.7885 6.30013 14.3108 7.40107 13.4934 8.2246L9.13874 12.5792C8.70568 13.0122 8.11839 13.2554 7.50604 13.2554C6.89368 13.2554 6.3064 13.0122 5.87333 12.5792L1.51869 8.22537C0.652583 7.3592 0.166016 6.18447 0.166016 4.95957C0.166016 3.73467 0.652583 2.55917 1.51869 1.69301Z" fill="#FF8963"/>
</svg>