<svg width="199" height="60" viewBox="0 0 199 60" fill="none" xmlns="http://www.w3.org/2000/svg">
<path d="M23.98 30.332H7.392C8.14 33.104 10.208 34.468 13.596 34.468C15.752 34.468 17.424 33.72 18.524 32.268L23.1 34.908C20.944 38.032 17.732 39.616 13.508 39.616C9.856 39.616 6.952 38.516 4.752 36.316C2.552 34.116 1.452 31.344 1.452 28C1.452 24.7 2.552 21.928 4.708 19.728C6.864 17.484 9.68 16.384 13.068 16.384C16.28 16.384 18.964 17.484 21.032 19.728C23.144 21.972 24.2 24.7 24.2 28C24.2 28.748 24.112 29.496 23.98 30.332ZM7.304 25.932H18.524C17.864 22.94 15.664 21.488 13.068 21.488C10.032 21.488 7.964 23.116 7.304 25.932ZM36.763 31.784L41.647 17H47.719L39.711 39C37.423 45.336 33.727 48.108 28.095 47.8V42.52C31.131 42.564 32.803 41.288 33.859 38.296L24.839 17H31.043L36.763 31.784ZM71.8042 30.332H55.2162C55.9642 33.104 58.0322 34.468 61.4202 34.468C63.5762 34.468 65.2482 33.72 66.3482 32.268L70.9242 34.908C68.7682 38.032 65.5562 39.616 61.3322 39.616C57.6802 39.616 54.7762 38.516 52.5762 36.316C50.3762 34.116 49.2762 31.344 49.2762 28C49.2762 24.7 50.3762 21.928 52.5322 19.728C54.6882 17.484 57.5042 16.384 60.8922 16.384C64.1042 16.384 66.7882 17.484 68.8562 19.728C70.9682 21.972 72.0242 24.7 72.0242 28C72.0242 28.748 71.9362 29.496 71.8042 30.332ZM55.1282 25.932H66.3482C65.6882 22.94 63.4882 21.488 60.8922 21.488C57.8562 21.488 55.7882 23.116 55.1282 25.932ZM96.1593 30.552L99.8993 17H105.927L98.9313 39H93.5193L89.4713 25.668L85.4233 39H80.0113L73.0153 17H79.0433L82.7833 30.508L86.7873 17H92.1553L96.1593 30.552ZM111.803 15.064C109.911 15.064 108.327 13.524 108.327 11.676C108.327 9.828 109.911 8.244 111.803 8.244C113.739 8.244 115.323 9.828 115.323 11.676C115.323 13.524 113.739 15.064 111.803 15.064ZM114.663 39H108.987V17H114.663V39ZM124.922 23.248C124.922 24.436 126.682 25.096 128.926 25.668C132.138 26.328 136.318 27.868 136.274 32.576C136.274 34.82 135.438 36.58 133.722 37.812C132.05 39 129.938 39.616 127.43 39.616C122.898 39.616 119.818 37.856 118.19 34.38L123.118 31.608C123.778 33.5 125.186 34.468 127.43 34.468C129.454 34.468 130.466 33.852 130.466 32.576C130.466 31.388 128.706 30.728 126.462 30.156C123.206 29.32 119.114 27.956 119.114 23.38C119.114 21.224 119.906 19.508 121.49 18.276C123.118 17 125.098 16.384 127.474 16.384C131.038 16.384 134.118 18.056 135.834 21.048L130.994 23.688C130.29 22.192 129.102 21.444 127.474 21.444C126.022 21.444 124.922 22.148 124.922 23.248ZM161.523 30.332H144.935C145.683 33.104 147.751 34.468 151.139 34.468C153.295 34.468 154.967 33.72 156.067 32.268L160.643 34.908C158.487 38.032 155.275 39.616 151.051 39.616C147.399 39.616 144.495 38.516 142.295 36.316C140.095 34.116 138.995 31.344 138.995 28C138.995 24.7 140.095 21.928 142.251 19.728C144.407 17.484 147.223 16.384 150.611 16.384C153.823 16.384 156.507 17.484 158.575 19.728C160.687 21.972 161.743 24.7 161.743 28C161.743 28.748 161.655 29.496 161.523 30.332ZM144.847 25.932H156.067C155.407 22.94 153.207 21.488 150.611 21.488C147.575 21.488 145.507 23.116 144.847 25.932Z" fill="white"/>
<path d="M171.645 38.472C170.193 39.924 167.817 39.924 166.365 38.472C164.913 37.02 164.913 34.644 166.365 33.192C167.817 31.74 170.193 31.74 171.645 33.192C173.097 34.644 173.097 37.02 171.645 38.472Z" fill="#FF8963"/>
</svg>