<svg width="173" height="41" viewBox="0 0 173 41" fill="none" xmlns="http://www.w3.org/2000/svg">
<path d="M23.0386 22.332H6.45059C7.19859 25.104 9.26659 26.468 12.6546 26.468C14.8106 26.468 16.4826 25.72 17.5826 24.268L22.1586 26.908C20.0026 30.032 16.7906 31.616 12.5666 31.616C8.91459 31.616 6.01059 30.516 3.81059 28.316C1.61059 26.116 0.510594 23.344 0.510594 20C0.510594 16.7 1.61059 13.928 3.76659 11.728C5.92259 9.484 8.73859 8.384 12.1266 8.384C15.3386 8.384 18.0226 9.484 20.0906 11.728C22.2026 13.972 23.2586 16.7 23.2586 20C23.2586 20.748 23.1706 21.496 23.0386 22.332ZM6.36259 17.932H17.5826C16.9226 14.94 14.7226 13.488 12.1266 13.488C9.09059 13.488 7.02259 15.116 6.36259 17.932ZM35.8216 23.784L40.7056 9H46.7776L38.7696 31C36.4816 37.336 32.7856 40.108 27.1536 39.8V34.52C30.1896 34.564 31.8616 33.288 32.9176 30.296L23.8976 9H30.1016L35.8216 23.784ZM70.8628 22.332H54.2748C55.0228 25.104 57.0908 26.468 60.4788 26.468C62.6348 26.468 64.3068 25.72 65.4068 24.268L69.9828 26.908C67.8268 30.032 64.6148 31.616 60.3908 31.616C56.7388 31.616 53.8348 30.516 51.6348 28.316C49.4348 26.116 48.3348 23.344 48.3348 20C48.3348 16.7 49.4348 13.928 51.5908 11.728C53.7468 9.484 56.5628 8.384 59.9508 8.384C63.1628 8.384 65.8468 9.484 67.9148 11.728C70.0268 13.972 71.0828 16.7 71.0828 20C71.0828 20.748 70.9948 21.496 70.8628 22.332ZM54.1868 17.932H65.4068C64.7468 14.94 62.5468 13.488 59.9508 13.488C56.9148 13.488 54.8468 15.116 54.1868 17.932ZM95.2178 22.552L98.9578 9H104.986L97.9898 31H92.5778L88.5298 17.668L84.4818 31H79.0698L72.0738 9H78.1018L81.8418 22.508L85.8458 9H91.2138L95.2178 22.552ZM110.861 7.064C108.969 7.064 107.385 5.524 107.385 3.676C107.385 1.828 108.969 0.243997 110.861 0.243997C112.797 0.243997 114.381 1.828 114.381 3.676C114.381 5.524 112.797 7.064 110.861 7.064ZM113.721 31H108.045V9H113.721V31ZM123.98 15.248C123.98 16.436 125.74 17.096 127.984 17.668C131.196 18.328 135.376 19.868 135.332 24.576C135.332 26.82 134.496 28.58 132.78 29.812C131.108 31 128.996 31.616 126.488 31.616C121.956 31.616 118.876 29.856 117.248 26.38L122.176 23.608C122.836 25.5 124.244 26.468 126.488 26.468C128.512 26.468 129.524 25.852 129.524 24.576C129.524 23.388 127.764 22.728 125.52 22.156C122.264 21.32 118.172 19.956 118.172 15.38C118.172 13.224 118.964 11.508 120.548 10.276C122.176 9 124.156 8.384 126.532 8.384C130.096 8.384 133.176 10.056 134.892 13.048L130.052 15.688C129.348 14.192 128.16 13.444 126.532 13.444C125.08 13.444 123.98 14.148 123.98 15.248ZM160.582 22.332H143.994C144.742 25.104 146.81 26.468 150.198 26.468C152.354 26.468 154.026 25.72 155.126 24.268L159.702 26.908C157.546 30.032 154.334 31.616 150.11 31.616C146.458 31.616 143.554 30.516 141.354 28.316C139.154 26.116 138.054 23.344 138.054 20C138.054 16.7 139.154 13.928 141.31 11.728C143.466 9.484 146.282 8.384 149.67 8.384C152.882 8.384 155.566 9.484 157.634 11.728C159.746 13.972 160.802 16.7 160.802 20C160.802 20.748 160.714 21.496 160.582 22.332ZM143.906 17.932H155.126C154.466 14.94 152.266 13.488 149.67 13.488C146.634 13.488 144.566 15.116 143.906 17.932Z" fill="black"/>
<path d="M170.704 30.472C169.252 31.924 166.876 31.924 165.424 30.472C163.972 29.02 163.972 26.644 165.424 25.192C166.876 23.74 169.252 23.74 170.704 25.192C172.156 26.644 172.156 29.02 170.704 30.472Z" fill="#FF8963"/>
</svg>
