<svg width="28" height="36" viewBox="0 0 28 36" fill="none" xmlns="http://www.w3.org/2000/svg">
<path d="M4.00034 18.3812C4.00034 18.8534 4.03534 19.3117 4.10534 19.7562C4.17534 20.2006 4.27922 20.6451 4.417 21.0895C4.55589 21.5617 4.56978 22.0412 4.45867 22.5279C4.34756 23.0145 4.11145 23.4379 3.75034 23.7979C3.44478 24.1034 3.077 24.2423 2.647 24.2145C2.217 24.1867 1.91811 23.9784 1.75034 23.5895C1.38922 22.7562 1.11811 21.9017 0.937003 21.0262C0.755892 20.1506 0.665891 19.269 0.667002 18.3812C0.667002 14.659 1.95867 11.4923 4.542 8.88119C7.12534 6.27007 10.2781 4.96452 14.0003 4.96452H14.292L12.792 3.46452C12.4864 3.15896 12.3337 2.77007 12.3337 2.29785C12.3337 1.82563 12.4864 1.43674 12.792 1.13119C13.0976 0.82563 13.4864 0.672852 13.9587 0.672852C14.4309 0.672852 14.8198 0.82563 15.1253 1.13119L19.4587 5.46452C19.792 5.79785 19.9587 6.18674 19.9587 6.63119C19.9587 7.07563 19.792 7.46452 19.4587 7.79785L15.1253 12.1312C14.8198 12.4367 14.4309 12.5895 13.9587 12.5895C13.4864 12.5895 13.0976 12.4367 12.792 12.1312C12.4864 11.8256 12.3337 11.4367 12.3337 10.9645C12.3337 10.4923 12.4864 10.1034 12.792 9.79785L14.292 8.29785H14.0003C11.2226 8.29785 8.86145 9.2773 6.917 11.2362C4.97256 13.1951 4.00034 15.5767 4.00034 18.3812ZM24.0003 18.2145C24.0003 17.7423 23.9653 17.284 23.8953 16.8395C23.8253 16.3951 23.7214 15.9506 23.5837 15.5062C23.4448 15.034 23.4309 14.5551 23.542 14.0695C23.6531 13.584 23.8892 13.1601 24.2503 12.7979C24.5559 12.4923 24.9242 12.3534 25.3553 12.3812C25.7864 12.409 26.0848 12.6173 26.2503 13.0062C26.6114 13.8395 26.8826 14.694 27.0637 15.5695C27.2448 16.4451 27.3348 17.3267 27.3337 18.2145C27.3337 21.9367 26.042 25.1034 23.4587 27.7145C20.8753 30.3256 17.7226 31.6312 14.0003 31.6312H13.7087L15.2087 33.1312C15.5142 33.4367 15.667 33.8256 15.667 34.2979C15.667 34.7701 15.5142 35.159 15.2087 35.4645C14.9031 35.7701 14.5142 35.9229 14.042 35.9229C13.5698 35.9229 13.1809 35.7701 12.8753 35.4645L8.542 31.1312C8.20867 30.7979 8.042 30.409 8.042 29.9645C8.042 29.5201 8.20867 29.1312 8.542 28.7979L12.8753 24.4645C13.1809 24.159 13.5698 24.0062 14.042 24.0062C14.5142 24.0062 14.9031 24.159 15.2087 24.4645C15.5142 24.7701 15.667 25.159 15.667 25.6312C15.667 26.1034 15.5142 26.4923 15.2087 26.7979L13.7087 28.2979H14.0003C16.7781 28.2979 19.1392 27.319 21.0837 25.3612C23.0281 23.4034 24.0003 21.0212 24.0003 18.2145Z" fill="#FF8963"/>
</svg>
