<svg width="36" height="30" viewBox="0 0 36 30" fill="none" xmlns="http://www.w3.org/2000/svg">
<g clip-path="url(#clip0_540_1429)">
<path d="M35.1 20.2354H34.2V14.1125C34.2 13.3932 33.9131 12.7021 33.4069 12.1924L27.7875 6.53398C27.2812 6.02422 26.595 5.73535 25.8806 5.73535H23.4V3.0166C23.4 1.51562 22.1906 0.297852 20.7 0.297852H6.3C4.80937 0.297852 3.6 1.51562 3.6 3.0166V5.73535H0.45C0.2025 5.73535 0 5.93926 0 6.18848V7.09473C0 7.34395 0.2025 7.54785 0.45 7.54785H15.75C15.9975 7.54785 16.2 7.75176 16.2 8.00098V8.90723C16.2 9.15645 15.9975 9.36035 15.75 9.36035H2.25C2.0025 9.36035 1.8 9.56426 1.8 9.81348V10.7197C1.8 10.9689 2.0025 11.1729 2.25 11.1729H13.95C14.1975 11.1729 14.4 11.3768 14.4 11.626V12.5322C14.4 12.7814 14.1975 12.9854 13.95 12.9854H0.45C0.2025 12.9854 0 13.1893 0 13.4385V14.3447C0 14.5939 0.2025 14.7979 0.45 14.7979H12.15C12.3975 14.7979 12.6 15.0018 12.6 15.251V16.1572C12.6 16.4064 12.3975 16.6104 12.15 16.6104H3.6V23.8604C3.6 26.8623 6.01875 29.2979 9 29.2979C11.9812 29.2979 14.4 26.8623 14.4 23.8604H21.6C21.6 26.8623 24.0187 29.2979 27 29.2979C29.9812 29.2979 32.4 26.8623 32.4 23.8604H35.1C35.595 23.8604 36 23.4525 36 22.9541V21.1416C36 20.6432 35.595 20.2354 35.1 20.2354ZM9 26.5791C7.50937 26.5791 6.3 25.3613 6.3 23.8604C6.3 22.3594 7.50937 21.1416 9 21.1416C10.4906 21.1416 11.7 22.3594 11.7 23.8604C11.7 25.3613 10.4906 26.5791 9 26.5791ZM27 26.5791C25.5094 26.5791 24.3 25.3613 24.3 23.8604C24.3 22.3594 25.5094 21.1416 27 21.1416C28.4906 21.1416 29.7 22.3594 29.7 23.8604C29.7 25.3613 28.4906 26.5791 27 26.5791ZM31.5 14.7979H23.4V8.4541H25.8806L31.5 14.1125V14.7979Z" fill="#FF8963"/>
</g>
<defs>
<clipPath id="clip0_540_1429">
<rect width="36" height="29" fill="white" transform="translate(0 0.297852)"/>
</clipPath>
</defs>
</svg>
